#!OML:ASF H:\Terrain\Patient Classification 1\Walking\steve\steve.ASF
:FULLY-SPECIFIED
:DEGREES
247
root 7.23717 16.5288 20.9489 5.05804 -0.720387 2.60672
lowerback 0.0911702 1.2944 -4.99047
upperback -2.77127 1.64977 0.249537
thorax -3.0595 0.953461 3.00595
lowerneck -8.7225 0.851803 -3.64994
upperneck 10.9479 1.56938 0.656545
head 4.68197 0.661888 0.899705
rclavicle 1.98163e-015 3.57812e-015
rhumerus -60.6248 -31.9092 -56.7045
rradius 16.146
rwrist 17.8936
rhand -13.9085 -40.2077
rfingers 7.12502
rthumb 12.2173 -1149.83
lclavicle 1.98163e-015 3.57812e-015
lhumerus -20.5058 -5.97324 89.8779
lradius 39.3121
lwrist 24.2999
lhand -24.5278 -11.4537
lfingers 7.12502
lthumb 1.96761 18.5169
rfemur -39.243 2.64162 19.7471
rtibia 45.6523
rfoot -17.6436 -1.50994
rtoes -12.4237
lfemur -4.55508 1.05564 -28.1347
ltibia 26.0041
lfoot -19.253 -7.14942
ltoes 3.07743
248
root 7.23149 16.536 21.1726 5.16095 -0.159664 2.41305
lowerback 0.0761927 1.24976 -4.79103
upperback -2.84147 1.5967 0.393357
thorax -3.11684 0.926851 3.04396
lowerneck -8.68876 0.672112 -3.84808
upperneck 10.9382 1.3414 0.748759
head 4.67652 0.547674 0.945488
rclavicle 1.61202e-015 -1.13307e-014
rhumerus -63.8737 -33.3583 -52.2794
rradius 15.4871
rwrist 21.2688
rhand -14.1787 -39.8024
rfingers 7.12502
rthumb 11.9568 -1149.44
lclavicle 1.61202e-015 -1.13307e-014
lhumerus -19.1355 -7.19241 90.1118
lradius 40.1935
lwrist 25.1889
lhand -24.8871 -12.2355
lfingers 7.12502
lthumb 1.62059 17.7381
rfemur -39.2923 2.70703 19.7268
rtibia 42.0337
rfoot -17.7179 -1.33909
rtoes -9.23933
lfemur -3.19569 1.12133 -27.7686
ltibia 24.9078
lfoot -19.0945 -7.74376
ltoes 3.18457
249
root 7.21801 16.5243 21.3941 5.29375 0.278982 2.19805
lowerback 0.0447175 1.20598 -4.68127
upperback -2.9277 1.54373 0.530108
thorax -3.18438 0.902952 3.12516
lowerneck -8.41366 0.649176 -3.80004
upperneck 10.7945 1.31056 0.58751
head 4.58868 0.526549 0.883475
rclavicle 1.38342e-014 5.96354e-015
rhumerus -66.6186 -34.0125 -49.0397
rradius 15.1727
rwrist 23.4338
rhand -14.9857 -40.0904
rfingers 7.12502
rthumb 11.1785 -1149.77
lclavicle 1.38342e-014 5.96354e-015
lhumerus -17.714 -8.33519 90.1636
lradius 41.0144
lwrist 26.0752
lhand -25.0127 -12.9112
lfingers 7.12502
lthumb 1.49927 17.0633
rfemur -39.2864 3.09076 19.6895
rtibia 38.5036
rfoot -17.4747 -1.30157
rtoes -4.75369
lfemur -1.77869 1.2421 -27.341
ltibia 23.5212
lfoot -18.7333 -8.21765
ltoes 2.98482
250
root 7.20312 16.5205 21.6236 5.45987 0.804963 2.17106
lowerback -0.179342 1.09216 -4.79218
upperback -2.93608 1.40336 0.605405
thorax -3.05935 0.834321 3.27437
lowerneck -8.02925 0.660719 -3.84359
upperneck 10.4081 1.30647 0.62942
head 4.40525 0.530448 0.89877
rclavicle -1.60829e-014 1.13307e-014
rhumerus -69.4392 -34.8597 -45.3192
rradius 14.7195
rwrist 26.0818
rhand -15.1235 -40.5675
rfingers 7.12502
rthumb 11.0456 -1150.26
lclavicle -1.60829e-014 1.13307e-014
lhumerus -16.3631 -9.41754 90.0757
lradius 42.0833
lwrist 26.6517
lhand -24.709 -12.7974
lfingers 7.12502
lthumb 1.79262 17.1748
rfemur -39.3602 3.40359 19.401
rtibia 35.1919
rfoot -17.5652 -1.69078
rtoes -7.91957
lfemur -0.282212 1.22808 -27.0855
ltibia 21.9759
lfoot -18.268 -8.61431
ltoes 2.6466
251
root 7.18977 16.5285 21.8549 5.72147 1.45538 2.67564
lowerback -0.495062 0.920257 -5.4007
upperback -2.97933 1.18099 0.543313
thorax -2.92033 0.735504 3.56342
lowerneck -7.94206 0.628437 -3.79796
upperneck 10.3018 1.25141 0.639489
head 4.35946 0.507108 0.890078
rclavicle 1.33341e-014 -7.35503e-015
rhumerus -72.4064 -35.5109 -41.3779
rradius 14.3754
rwrist 28.8046
rhand -14.4889 -41.1317
rfingers 7.12502
rthumb 11.6577 -1150.79
lclavicle 1.33341e-014 -7.35503e-015
lhumerus -15.3157 -10.3513 90.0302
lradius 43.3071
lwrist 27.0869
lhand -24.4613 -13.0072
lfingers 7.12502
lthumb 2.03184 16.9629
rfemur -39.7435 3.63228 18.3629
rtibia 32.2346
rfoot -17.8966 -2.12205
rtoes -12.1621
lfemur 1.23267 1.48425 -27.31
ltibia 20.1834
lfoot -17.3362 -9.49788
ltoes 2.94607
252
root 7.18222 16.5313 22.0792 5.89933 2.08271 2.72784
lowerback -0.88738 0.718697 -5.4909
upperback -2.80407 0.940625 0.615223
thorax -2.49588 0.603206 3.70122
lowerneck -8.60237 0.559136 -3.62671
upperneck 10.5248 1.18039 0.512898
head 4.54156 0.468341 0.823646
rclavicle 7.16557e-015 2.78299e-015
rhumerus -73.1412 -34.9894 -41.2343
rradius 14.4954
rwrist 28.4909
rhand -14.0084 -42.6644
rfingers 7.12502
rthumb 12.121 -1152.29
lclavicle 7.16557e-015 2.78299e-015
lhumerus -13.9298 -11.2387 89.812
lradius 44.4154
lwrist 27.6596
lhand -24.5708 -13.7442
lfingers 7.12502
lthumb 1.92604 16.2269
rfemur -40.1077 3.92501 17.7917
rtibia 29.8008
rfoot -18.1567 -2.35352
rtoes -13.1272
lfemur 3.0884 1.8762 -27.0417
ltibia 17.8545
lfoot -15.9885 -10.2868
ltoes 2.53863
253
root 7.17254 16.5292 22.3071 5.97682 2.69492 2.34539
lowerback -1.1903 0.564313 -5.15792
upperback -2.63092 0.760927 0.809979
thorax -2.12356 0.494762 3.72284
lowerneck -9.0815 0.405875 -3.64796
upperneck 10.5988 1.00016 0.488372
head 4.64834 0.376239 0.810558
rclavicle -4.23912e-015 3.97569e-015
rhumerus -74.1138 -34.6104 -40.6286
rradius 14.4089
rwrist 28.6514
rhand -13.9492 -42.7706
rfingers 7.12502
rthumb 12.1781 -1152.4
lclavicle -4.23912e-015 3.97569e-015
lhumerus -12.4347 -12.2603 89.5429
lradius 45.3302
lwrist 28.0175
lhand -24.5931 -13.951
lfingers 7.12502
lthumb 1.90457 16.0202
rfemur -40.4326 4.37962 17.72
rtibia 27.8573
rfoot -18.4814 -2.72541
rtoes -12.0829
lfemur 5.2504 2.00245 -26.3281
ltibia 15.1661
lfoot -14.5833 -10.6651
ltoes 1.30423
254
root 7.16666 16.5236 22.5387 6.15151 3.48293 2.7153
lowerback -1.34593 0.382246 -5.47752
upperback -2.65203 0.52587 0.776584
thorax -2.03803 0.381415 3.87156
lowerneck -9.01704 0.22588 -3.64797
upperneck 10.3646 0.765729 0.379296
head 4.57109 0.257297 0.760354
rclavicle 3.08485e-015 7.95139e-016
rhumerus -76.0108 -34.4762 -38.5212
rradius 14.2958
rwrist 29.8183
rhand -13.7784 -41.622
rfingers 7.12502
rthumb 12.3428 -1151.24
lclavicle 3.08485e-015 7.95139e-016
lhumerus -11.2692 -13.0373 89.4287
lradius 46.1867
lwrist 27.9575
lhand -24.3761 -13.8549
lfingers 7.12502
lthumb 2.11416 16.1144
rfemur -40.8631 4.1194 17.0279
rtibia 26.2463
rfoot -18.819 -2.44855
rtoes -7.93233
lfemur 7.3498 1.8135 -26.404
ltibia 12.4736
lfoot -13.0299 -10.9755
ltoes 1.21559
255
root 7.17042 16.5174 22.7725 6.48967 3.93212 3.30923
lowerback -1.62141 0.261172 -5.90111
upperback -2.80243 0.376353 0.640632
thorax -2.02712 0.316867 3.97118
lowerneck -8.7665 0.183467 -3.51174
upperneck 10.2158 0.702338 0.173675
head 4.48628 0.221121 0.669494
rclavicle -4.26222e-015 -2.38542e-015
rhumerus -76.9301 -33.6082 -38.3981
rradius 14.5674
rwrist 29.0849
rhand -13.7223 -41.935
rfingers 7.12502
rthumb 12.3968 -1151.55
lclavicle -4.26222e-015 -2.38542e-015
lhumerus -10.5335 -13.4783 89.3436
lradius 47.191
lwrist 27.7129
lhand -24.4454 -13.7926
lfingers 7.12502
lthumb 2.04718 16.1774
rfemur -41.4784 3.07055 16.6428
rtibia 24.9445
rfoot -18.8098 -1.44586
rtoes -6.96582
lfemur 9.10258 1.60761 -26.8321
ltibia 10.0834
lfoot -11.762 -10.9191
ltoes 1.64888
256
root 7.17348 16.4909 23.0232 6.79737 3.79769 3.4245
lowerback -2.17735 0.293411 -5.89185
upperback -2.90471 0.45226 0.604566
thorax -1.8288 0.350783 3.93159
lowerneck -8.58779 0.232388 -3.24394
upperneck 10.1747 0.765566 -0.176443
head 4.44532 0.24254 0.521591
rclavicle -2.22546e-014 8.74653e-015
rhumerus -77.3143 -32.4974 -39.3083
rradius 14.8383
rwrist 27.5709
rhand -14.2381 -42.3382
rfingers 7.12502
rthumb 11.8995 -1151.98
lclavicle -2.22546e-014 8.74653e-015
lhumerus -9.90933 -13.7271 89.1692
lradius 48.252
lwrist 27.2736
lhand -24.5046 -13.5568
lfingers 7.12502
lthumb 1.98998 16.4136
rfemur -42.2784 2.38164 16.9892
rtibia 24.1183
rfoot -18.6012 -0.288338
rtoes -8.74452
lfemur 11.2405 1.59584 -26.9128
ltibia 7.09789
lfoot -10.4846 -10.4395
ltoes 2.09862
257
root 7.15594 16.4714 23.1898 7.57779 5.95982 4.04113
lowerback -1.64483 -0.407843 -6.25749
upperback -3.3742 -0.5334 0.458864
thorax -2.5059 -0.103254 3.98653
lowerneck -8.48261 0.195787 -2.97068
upperneck 9.9774 0.701893 -0.423165
head 4.37006 0.209863 0.39661
rclavicle 3.05942e-015 1.39149e-014
rhumerus -76.9653 -31.1296 -41.7419
rradius 15.2858
rwrist 24.718
rhand -14.343 -42.4643
rfingers 7.12502
rthumb 11.7984 -1152.11
lclavicle 3.05942e-015 1.39149e-014
lhumerus -9.18823 -14.2641 88.8387
lradius 49.2445
lwrist 26.9942
lhand -24.4058 -13.6514
lfingers 7.12502
lthumb 2.0854 16.3181
rfemur -43.2835 1.88627 15.4296
rtibia 23.5568
rfoot -19.7308 -1.36212
rtoes -8.97346
lfemur 12.9099 -0.758304 -27.3992
ltibia 3.37168
lfoot -8.09636 -9.35818
ltoes 1.98049
258
root 7.14891 16.4418 23.4375 7.15479 5.59101 4.10497
lowerback -1.57942 -0.236289 -6.33427
upperback -3.14103 -0.302028 0.455653
thorax -2.32724 0.00261602 4.0252
lowerneck -8.45782 0.105864 -3.00675
upperneck 9.38649 0.576141 -0.385068
head 4.64484 0.152106 0.448173
rclavicle -9.05247e-015 1.86858e-014
rhumerus -76.7286 -30.1878 -43.3963
rradius 15.5651
rwrist 22.6045
rhand -13.7869 -42.7938
rfingers 7.12502
rthumb 12.3346 -1152.41
lclavicle -9.05247e-015 1.86858e-014
lhumerus -8.41928 -15.0486 88.4894
lradius 50.2151
lwrist 27.0247
lhand -24.3324 -13.7298
lfingers 7.12502
lthumb 2.15638 16.2391
rfemur -43.1629 2.12468 15.5988
rtibia 23.3898
rfoot -19.7349 -0.422371
rtoes -9.58008
lfemur 16.0532 -0.461102 -27.3799
ltibia 2.22639e-014
lfoot -6.63541 -8.5618
ltoes 0.497546
